<svg width="251" height="73" viewBox="0 0 251 73" fill="none" xmlns="http://www.w3.org/2000/svg">
<path d="M0.652293 26.5402C-5.05312 38.1623 28.5454 71.1269 28.5454 71.1269C28.5454 71.1269 3.39928 40.9093 8.6821 31.6116C13.9649 22.3139 69.1172 34.1473 69.1172 34.1473C69.1172 34.1473 7.81 11.9596 0.652293 26.5402Z" fill="url(#paint0_diamond_20_259)"/>
<path d="M47.5635 16.1357C32.9889 14.1614 16.5007 17.8262 16.5007 17.8262C16.5007 17.8262 33.888 16.9318 46.7183 19.3054C63.4447 22.3998 74.1607 31.9567 92.7842 35.999C120.043 41.9158 135.892 33.6746 135.892 33.6746C135.892 33.6746 116.451 38.7461 94.2634 32.4067C65.3137 24.1354 64.6387 18.4488 47.5635 16.1357Z" fill="url(#paint1_diamond_20_259)"/>
<path d="M36.7866 11.9596C36.7866 11.9596 76.5131 -4.73394 108.633 3.08451C116.451 4.98768 141.386 21.6799 155.332 21.6799C161.038 21.6799 250 21.2573 250 41.1206C250 42.8111 243.872 51.8975 243.872 56.7577C243.872 58.9926 244.498 60.6913 245.173 61.8744C246.048 63.0771 246.83 63.9423 246.83 63.9423C246.83 63.9423 245.967 63.2641 245.173 61.8744C244.068 60.3532 242.815 58.2918 242.815 56.7577C242.815 45.7695 247.114 45.5576 247.042 41.1206C246.81 26.9627 159.981 28.9584 153.431 28.2306C136.619 26.3626 117.93 13.0162 107.365 8.3673C78.6263 -0.507782 36.7866 11.9596 36.7866 11.9596Z" fill="url(#paint2_radial_20_259)" stroke="#555555"/>
<path d="M105.252 11.1142C83.5069 4.62012 49.254 11.9595 49.254 11.9595C49.254 11.9595 73.0314 20.9466 84.7543 23.5816C107.356 28.6618 137.794 28.0191 137.794 28.0191C137.794 28.0191 112.225 13.1968 105.252 11.1142Z" fill="url(#paint3_linear_20_259)"/>
<path d="M115.817 62.463L114.549 63.3083C114.549 63.3083 113.493 61.1952 110.957 61.1952C108.421 61.1952 107.153 63.791 107.153 66.2667C107.153 68.7424 108.421 71.1268 110.957 71.1268C113.493 71.1268 114.549 68.8024 114.549 68.8024L115.817 69.4363C115.817 69.4363 114.338 72.606 110.957 72.606C106.731 72.606 104.195 69.8864 104.195 66.2667C104.195 62.647 106.731 59.9273 110.957 59.9273C114.338 59.9273 115.817 62.463 115.817 62.463Z" fill="#029BD5"/>
<path d="M157.657 72.606V59.9273H165.264V61.6178H160.826V65.2101H164.841V66.9006H160.826V70.9155H165.264V72.606H157.657Z" fill="#029BD5"/>
<path d="M187.135 59.9273V72.606H189.248V64.1536L194.742 72.606H197.172V59.9273H194.953V65.8441L190.938 59.9273H187.135Z" fill="#029BD5"/>
<path d="M98.0669 72.606V59.9273H101.448V72.606L98.0669 72.606Z" fill="#029BD5"/>
<path d="M34.6734 72.606V59.9273H37.6318L40.5902 66.2667L43.5485 59.9273H46.5069V72.606H43.5485V64.3649L39.7449 71.7608L36.5753 64.9988V72.606H34.6734Z" fill="#029BD5"/>
<path d="M49.8879 59.9273V72.606H57.4951V70.9155H53.0576V66.9006H57.0725V65.2101H53.0576V61.6178L57.4951 61.6178V59.9273H49.8879Z" fill="#029BD5"/>
<path d="M69.9625 63.3083L71.2304 62.463C71.2304 62.463 69.7512 59.9273 66.3702 59.9273C62.144 59.9273 59.6082 62.647 59.6082 66.2667C59.6082 69.8864 62.144 72.606 66.3702 72.606C69.7512 72.606 71.2304 69.4363 71.2304 69.4363L69.9625 68.8024C69.9625 68.8024 68.9059 71.1268 66.3702 71.1268C63.8344 71.1268 62.5666 68.7424 62.5666 66.2667C62.5666 63.791 63.8344 61.1952 66.3702 61.1952C68.9059 61.1952 69.9625 63.3083 69.9625 63.3083Z" fill="#029BD5"/>
<path fill-rule="evenodd" clip-rule="evenodd" d="M71.8643 72.606L76.3018 59.9273H79.2602L84.1204 72.606H80.5281L79.0489 68.8024H75.2453L73.9774 72.606H71.8643ZM78.415 67.1119H75.6679L76.9358 62.8857L78.415 67.1119Z" fill="#029BD5"/>
<path d="M85.3882 72.606V59.9273H89.1918L93.2068 65.8441V59.9273H95.4255V72.606H92.9954L87.5014 64.1536V72.606H85.3882Z" fill="#029BD5"/>
<path d="M147.725 59.9273V72.606H155.544V70.4929H151.106V59.9273H147.725Z" fill="#029BD5"/>
<path d="M168.856 59.9273H172.237C172.237 59.9273 172.237 68.1684 171.815 70.7042C170.758 73.0286 166.109 72.606 166.109 72.606V70.9155C166.109 70.9155 168.856 71.0774 168.856 69.8589V59.9273Z" fill="#029BD5"/>
<path fill-rule="evenodd" clip-rule="evenodd" d="M199.919 59.9273V72.606H205.308C208.838 72.6352 211.753 69.7971 211.753 66.2667C211.753 62.7363 208.838 59.8982 205.308 59.9273H199.919ZM208.266 66.2666C208.224 68.4882 207.53 71.1268 205.308 71.1268H203.3V61.1952H205.308C207.6 61.1952 208.309 63.9742 208.266 66.2666Z" fill="#029BD5"/>
<path fill-rule="evenodd" clip-rule="evenodd" d="M214.077 59.9273V72.606L217.458 72.606V66.478L220.628 72.606H224.22L221.05 66.5572C221.05 66.5572 224.009 66.2666 224.22 63.7309C224.22 59.716 217.458 59.9273 217.458 59.9273H214.077ZM217.458 61.1952C217.458 61.1952 221.05 61.1952 221.05 63.7309C221.05 66.2666 217.458 66.0553 217.458 66.0553V61.1952Z" fill="#029BD5"/>
<path fill-rule="evenodd" clip-rule="evenodd" d="M232.25 59.9273C228.749 59.9563 225.91 62.7655 225.91 66.2666C225.91 69.7678 228.749 72.5771 232.25 72.606C235.78 72.6352 238.695 69.7971 238.695 66.2667C238.695 62.7363 235.78 59.8982 232.25 59.9273ZM229.291 66.2666C229.249 63.9742 229.957 61.1952 232.25 61.1952C234.543 61.1952 235.251 63.9742 235.208 66.2666C235.167 68.4882 234.472 71.1268 232.25 71.1268C230.028 71.1268 229.333 68.4882 229.291 66.2666Z" fill="#029BD5"/>
<path fill-rule="evenodd" clip-rule="evenodd" d="M133.99 72.606L138.427 59.9273H141.386L146.246 72.606H142.654L141.174 68.8024H137.371L136.103 72.606H133.99ZM140.541 67.1119H137.794L139.061 62.8857L140.541 67.1119Z" fill="#029BD5"/>
<path fill-rule="evenodd" clip-rule="evenodd" d="M116.24 72.606L120.677 59.9273H123.636L128.496 72.606H124.904L123.424 68.8024H119.621L118.353 72.606H116.24ZM122.79 67.1119H120.043L121.311 62.8857L122.79 67.1119Z" fill="#029BD5"/>
<path fill-rule="evenodd" clip-rule="evenodd" d="M173.505 72.606L177.943 59.9273H180.901L185.761 72.606H182.169L180.69 68.8024H176.886L175.618 72.606H173.505ZM180.056 67.1119H177.309L178.577 62.8857L180.056 67.1119Z" fill="#029BD5"/>
<defs>
<radialGradient id="paint0_diamond_20_259" cx="0" cy="0" r="1" gradientUnits="userSpaceOnUse" gradientTransform="translate(-10.9698 21.8913) rotate(24.9671) scale(88.1096 237.479)">
<stop offset="0.166264" stop-color="#E4ECEE"/>
<stop offset="0.23481" stop-color="#60BFDF"/>
<stop offset="0.418619" stop-color="#2A8BB5"/>
<stop offset="0.965371" stop-color="#264D5C"/>
</radialGradient>
<radialGradient id="paint1_diamond_20_259" cx="0" cy="0" r="1" gradientUnits="userSpaceOnUse" gradientTransform="translate(11.4292 15.5518) rotate(14.9918) scale(129.067 347.87)">
<stop stop-color="#E4ECEE"/>
<stop offset="0.106866" stop-color="#60BFDF"/>
<stop offset="0.375828" stop-color="#2A8BB5"/>
<stop offset="0.858577" stop-color="#264D5C"/>
</radialGradient>
<radialGradient id="paint2_radial_20_259" cx="0" cy="0" r="1" gradientUnits="userSpaceOnUse" gradientTransform="translate(36.7866 11.7483) rotate(10.3048) scale(217.353 64.1644)">
<stop offset="0.389044" stop-color="#3B3B3B"/>
<stop offset="0.555652" stop-color="#ABABAB"/>
<stop offset="0.775826" stop-color="#3B3B3B"/>
</radialGradient>
<linearGradient id="paint3_linear_20_259" x1="91.5163" y1="4.56354" x2="88.9805" y2="23.3703" gradientUnits="userSpaceOnUse">
<stop offset="0.314693" stop-color="#C6C6C6"/>
<stop offset="0.684191" stop-color="#C6C6C6" stop-opacity="0"/>
</linearGradient>
</defs>
</svg>
